<?xml version="1.0" encoding="UTF-8"?><svg id="a" xmlns="http://www.w3.org/2000/svg" viewBox="0 0 702.7 365.4"><defs><style>.c{fill:#fff;}</style></defs><g id="b"><g><g><path class="c" d="M210.1,5.2h-15.6l-9.1,47.5h-4.8l9.1-47.5h-15.7l.8-4h36l-.7,4Z"/><path class="c" d="M214.3,53.3c-8.8,0-13.3-4.7-13.3-13.4,0-14.7,8.9-25.8,21.4-25.8,9.4,0,13.6,5.5,13.6,13.5,0,15.8-10.6,25.7-21.7,25.7Zm7.4-35.2c-9.3,0-15.7,9.9-15.7,20.9,0,6.6,2.7,10.2,9.2,10.2,8,0,15.7-8.2,15.7-21.1,0-6.4-2.9-10-9.2-10Z"/></g><g><path class="c" d="M17.7,153.3v6.3l12,2.3c3.2,.6,4.1,.2,4.1-2,0-1.3-.2-2.4-.4-3.3l5.5,.6c.4,1.8,.7,3.8,.7,5.5,0,5.7-2.7,7.3-9.1,6.1l-12.7-2.4v4.6l-5.3-1.1v-4.5l-8.2-1.6-1.4-7,9.6,1.8v-6.3l5.2,1Z"/><path class="c" d="M39,129.1v6.8l-16.7-3.2c-3.3-.6-4.6-.1-4.6,1.6,0,3.6,8.4,8.4,14.6,9.6l6.8,1.3v6.7L0,144.5v-6.7l11.3,2.1c2.4,.5,5,1.3,9.5,2.9v-.1c-4.7-2.4-8.8-6.1-8.8-11.2s3.6-6.7,8.8-5.7l18.2,3.3Z"/><path class="c" d="M28.1,114.6c.5,.1,1.4,.2,2.1,.2,3.1,0,3.9-1.2,3.9-4.9,0-2.6-.6-5.2-1.6-7.7l5.2-.1c1.1,3,1.7,6.5,1.7,10,0,6.8-3.1,9.4-9,9.4-11.1,0-18.7-6.8-18.7-15.1,0-6.6,3.3-8.6,6.5-8.6,7.2,0,9.7,7.8,9.9,16.8Zm-11.2-7.4c0,3.5,3.2,5.7,6.7,6.6-.2-6.2-1.5-9.4-4.3-9.4-1.6,.1-2.4,1.1-2.4,2.8Z"/></g><g><path class="c" d="M642.6,176.7c-8.8,0-13.3-4.7-13.3-13.4,0-14.7,8.9-25.8,21.4-25.8,9.4,0,13.6,5.5,13.6,13.5,0,15.7-10.7,25.7-21.7,25.7Zm7.4-35.2c-9.3,0-15.7,9.9-15.7,20.9,0,6.6,2.7,10.2,9.2,10.2,8,0,15.7-8.2,15.7-21.2,0-6.3-3-9.9-9.2-9.9Z"/><path class="c" d="M701.6,124.7c-1.9-.5-4.1-.8-6-.8-6.2,0-9.9,3.5-11.3,11.5l-.5,2.7h11.5l-.8,3.8h-11.4l-6.9,36.4c-2.4,12.6-8,17.4-17.1,17.4-2.2,0-4.4-.2-6.5-.7l1.2-4.2c2.1,.6,4.3,.8,6,.8,6.2,0,9.7-3.3,11.5-13.1l7-36.7h-8.6l.8-3.8h8.5l.5-2.6c1.9-10.6,7.6-15.6,16.8-15.6,2.2,0,4.2,.2,6.4,.7l-1.1,4.2Z"/></g><g><path class="c" d="M375.6,363.8h-42.4l15.4-81.4h18.3l-12.3,64.7h24.1l-3.1,16.7Z"/><path class="c" d="M402.2,363.8h-18.3l15.4-81.4h18.3l-15.4,81.4Z"/><path class="c" d="M457.5,363.8h-21.3l-11.7-81.3h19.3l5.7,44.5c.6,4.5,1.1,10.5,1.2,15.2h.2c2.2-5.2,4.9-11,7.6-16.3l22.2-43.4h19.4l-42.6,81.3Z"/><path class="c" d="M548.8,298.2h-26.5l-3,16.2h25.2l-3,15.3h-25.1l-3.5,18h26.5l-3,16.2h-44.8l15.4-81.4h44.8l-3,15.7Z"/><path class="c" d="M600.9,298.6c-3.7-1.2-8-2-11.5-2-9.3,0-12.9,4.1-12.9,8.8,0,10.6,22.5,11,22.5,30.6,0,16.3-14.3,29.4-35,29.4-5.7,0-11.2-.6-15.6-1.9l3.3-17.6c4.1,1.9,8.9,2.9,13.4,2.9,9,0,13.7-3.3,13.7-9.4,0-10.5-22.4-10.2-22.4-29.7,0-15.7,11-28.8,33.4-28.8,5.1,0,9.6,.5,14.2,1.2l-3.1,16.5Z"/><path class="c" d="M613.6,365.3c-6.1,0-11-5.1-11-11,0-6.6,5.5-11.8,11.8-11.8s11,5.2,11,11c0,6.7-5.6,11.8-11.8,11.8Z"/></g><g><path class="c" d="M77.9,150.9c-.5,0-1.8,0-3.4-.1v25.1h-22.4V94.5c7.5-.4,15.7-.6,24.6-.6,21.7,0,33.6,9.3,33.6,27.2,0,15.9-10.6,29.8-32.4,29.8Zm-1.2-38.8c-.4,0-1.2,0-2.2,.1v19.9c.8,.1,1.3,.1,1.7,.1,5.8,0,11-3.6,11-10.4,0-5.2-2.8-9.7-10.5-9.7Z"/><path class="c" d="M152.3,177.6c-25.6,0-38.1-15.4-38.1-40.8,0-26.8,18.6-44,41.4-44,25.6,0,38.1,15.4,38.1,40.7-.1,26.8-18.6,44.1-41.4,44.1Zm1.8-64.3c-9.8,0-16,7.6-16,21.3s4.9,22.3,15.7,22.3c9.8,0,16-7.5,16-21.2-.1-14.2-5-22.4-15.7-22.4Z"/><path class="c" d="M233.9,113.8v62.1h-22.4v-62.1h-17.6v-19.3h57.6v19.3h-17.6Z"/><path class="c" d="M258.7,175.9V94.5h47.6v19h-25.2v11.5h23.9v18.3h-23.9v13.1h25.2v19.4h-47.6v.1Z"/><path class="c" d="M359.3,175.9l-15.8-34.2c-2.7-5.8-4.5-10.6-5.5-15.2,.5,5.2,.8,19.7,.8,28.3v21.1h-21.3V94.5h29.4l15.2,32.8c2.3,4.9,4.6,11,6,16.2-.6-5.5-.8-21.5-.8-28.9v-20h21.3v81.4h-29.3v-.1Z"/><path class="c" d="M435.9,113.8v62.1h-22.4v-62.1h-17.6v-19.3h57.6v19.3h-17.6Z"/><path class="c" d="M460.7,175.9V94.5h22.4v81.4h-22.4Z"/><path class="c" d="M543.2,175.9l-4.1-13.3h-25.3l-4,13.3h-22.2l25.9-81.4h26.9l27.2,81.4h-24.4Zm-14-45.8c-1.2-4-2.2-7.8-2.9-11.5h-.2c-.7,3.6-1.6,7.5-2.8,11.6l-4.3,14.8h14.7l-4.5-14.9Z"/><path class="c" d="M572,175.9V94.5h22.4v61.4h22.4v20h-44.8Z"/></g><g><path class="c" d="M93.2,237.6c-2.4,0-4.8,0-7-.2v32.1h-9.3v-81.4c5.8-.2,12.2-.4,19.2-.4,18.3,0,28.3,9.3,28.3,23.1,0,15.9-13.3,26.8-31.2,26.8Zm1.7-42.4c-3.5,0-6.2,0-8.7,.1v34.1c2.2,.2,4.8,.5,7.4,.5,13.1-.1,21.2-7.1,21.2-17.8s-6.4-16.9-19.9-16.9Z"/><path class="c" d="M139.8,269.4v-81.4h41v7.5h-31.7v28.2h30.1v7.5h-30.1v30.5h31.7v7.7h-41Z"/><path class="c" d="M231.1,270.5c-24.4,0-36-16.3-36-40.9,0-27.4,17.2-42.7,38.2-42.7,24.2,0,35.9,16.3,35.9,40.9,0,27.4-17.2,42.7-38.1,42.7Zm1.1-75.6c-14.8,0-27.2,12.1-27.2,33s8.9,34.5,27.1,34.5c14.8,0,27.2-11.9,27.2-33,.1-20.4-8.9-34.5-27.1-34.5Z"/><path class="c" d="M301.9,237.6c-2.4,0-4.8,0-7-.2v32.1h-9.3v-81.4c5.8-.2,12.2-.4,19.2-.4,18.3,0,28.3,9.3,28.3,23.1,.1,15.9-13.3,26.8-31.2,26.8Zm1.7-42.4c-3.5,0-6.2,0-8.7,.1v34.1c2.2,.2,4.8,.5,7.4,.5,13.1-.1,21.2-7.1,21.2-17.8s-6.4-16.9-19.9-16.9Z"/><path class="c" d="M348.5,269.4v-81.4h9.3v73.5h30.1v7.8h-39.4v.1Z"/><path class="c" d="M399.7,269.4v-81.4h41v7.5h-31.7v28.2h30.1v7.5h-30.1v30.5h31.7v7.7h-41Z"/><path class="c" d="M458.6,209.7l-4-3.5c7.5-8.2,7.6-13.7,5.3-16.9-3-3.9-.4-9.3,4.5-9.3,7.8,0,11.3,13.7-5.8,29.7Z"/><path class="c" d="M502.6,270.5c-6.5,0-12.7-1-17.6-2.4l1.3-8.9c5.2,2,11,3.3,16.9,3.3,10.2,0,19.2-4.2,19.2-15.3,0-19.3-37.9-11.9-37.9-37.6,0-12.9,9.8-22.5,27.6-22.5,4.7,0,10.1,.6,14.6,1.6l-1.1,8.3c-4.3-1.3-9.4-2.2-14.1-2.2-11.8,0-17.5,5.4-17.5,13.7,0,18.8,38.1,12.1,38.1,37.6,0,14.1-11.6,24.4-29.5,24.4Z"/></g><g><path class="c" d="M278.4,83.7c-25.6,0-31-14-31-28.9V1.1h13.1V53.8c0,10.9,3.6,19,18.7,19,13.3,0,19.3-5.5,19.3-20.7V1.1h13V51.1c0,21.7-11.7,32.6-33.1,32.6Z"/><path class="c" d="M380.8,82.5l-28.8-48.9c-3.3-5.8-5.8-10.9-8-15.9,.5,8,.8,29.5,.8,42.4v22.4h-12.7V1.1h17.4l28.3,47.9c3,5.3,6,11.1,8.4,16.5-.5-9.3-.8-30.9-.8-43.8V1.1h12.7V82.5h-17.3Z"/><path class="c" d="M419.4,82.5V1.1h13.1V71h28v11.5h-41.1Z"/><path class="c" d="M499.8,83.7c-24.7,0-36.6-16-36.6-40.7,0-27.2,17.6-43,39.1-43,24.7,0,36.6,16,36.6,40.7,0,27.2-17.6,43-39.1,43Zm1.3-72.2c-13.4,0-24,10.7-24,29.7s7.7,30.9,23.8,30.9c13.4,0,24-10.6,24-29.5,0-18.7-7.8-31.1-23.8-31.1Z"/><path class="c" d="M586.3,83.4c-27.2,0-37.3-17.6-37.3-39.4,0-25.3,12.8-43.6,40.1-43.6,6,0,12.5,.8,18.1,2.5l-1.9,12.1c-5.4-1.9-11.3-3-17.2-3-17,0-24.7,13-24.7,29.9,0,18.9,8.1,29.8,25.8,29.8,5.5,0,12.2-1.4,16.8-3.9l2.2,11.6c-6.3,2.5-14.1,4-21.9,4Z"/><path class="c" d="M665.4,82.5l-29.5-39.8v39.8h-13.1V1.1h13.1V38.8L665.5,1.1h16.2l-32.3,39.3,33.5,42.1h-17.5Z"/></g></g></g></svg>